<svg width="607" height="74" viewBox="0 0 607 74" version="1.1" xmlns="http://www.w3.org/2000/svg" xmlns:xlink="http://www.w3.org/1999/xlink">
<title>ARTEFACT</title>
<desc>Created using Figma</desc>
<g id="Canvas" transform="translate(-7220 -4173)">
<g id="ARTEFACT">
<use xlink:href="#path0_fill" transform="translate(7220.35 4173.98)"/>
<use xlink:href="#path1_fill" transform="translate(7220.35 4173.98)"/>
<use xlink:href="#path2_fill" transform="translate(7220.35 4173.98)"/>
<use xlink:href="#path3_fill" transform="translate(7220.35 4173.98)"/>
<use xlink:href="#path4_fill" transform="translate(7220.35 4173.98)"/>
<use xlink:href="#path5_fill" transform="translate(7220.35 4173.98)"/>
<use xlink:href="#path6_fill" transform="translate(7220.35 4173.98)"/>
<use xlink:href="#path7_fill" transform="translate(7220.35 4173.98)"/>
</g>
</g>
<defs>
<path id="path0_fill" d="M 45.1731 43.5636L 33.0622 14.7595L 21.1046 43.5636L 45.1731 43.5636ZM 0 70.427L 0 68.5374C 2.69131 68.2309 4.70127 67.2095 6.02989 65.4731C 7.39258 63.7367 9.70915 59.0211 12.9796 51.3264L 34.7996 0L 36.8437 0L 62.9051 59.2935C 64.6425 63.243 66.0222 65.6944 67.0442 66.6477C 68.1003 67.567 69.8548 68.1969 72.3076 68.5374L 72.3076 70.427L 45.6841 70.427L 45.6841 68.5374C 48.7501 68.265 50.726 67.9415 51.6118 67.567C 52.4975 67.1584 52.9404 66.1881 52.9404 64.656C 52.9404 64.1453 52.7701 63.243 52.4294 61.9492C 52.0887 60.6554 51.6118 59.2935 50.9986 57.8635L 46.655 47.8025L 19.265 47.8025C 16.5396 54.646 14.9044 58.8339 14.3593 60.366C 13.8483 61.8641 13.5928 63.0557 13.5928 63.941C 13.5928 65.7114 14.3082 66.9371 15.739 67.6181C 16.6248 68.0267 18.2941 68.3331 20.7469 68.5374L 20.7469 70.427L 0 70.427Z"/>
<path id="path1_fill" d="M 104.806 34.6262C 112.334 34.3538 117.717 33.5707 120.953 32.2769C 126.506 29.9957 129.283 25.7058 129.283 19.407C 129.283 13.3466 126.796 9.20982 121.822 6.99674C 119.165 5.80507 115.639 5.20925 111.244 5.20925C 108.28 5.20925 106.458 5.43056 105.776 5.87317C 105.129 6.28174 104.806 7.26912 104.806 8.83529L 104.806 34.6262ZM 85.1828 68.5374C 89.2028 68.1628 91.7067 67.3798 92.6946 66.1881C 93.6826 64.9964 94.1766 62.2216 94.1766 57.8635L 94.1766 12.5635C 94.1766 8.88636 93.6145 6.48602 92.4902 5.36246C 91.4001 4.20485 88.9643 3.47283 85.1828 3.16641L 85.1828 1.22571L 114.157 1.22571C 120.187 1.22571 125.212 1.99177 129.232 3.5239C 136.863 6.41793 140.678 11.7463 140.678 19.5091C 140.678 24.7184 138.975 28.719 135.568 31.5108C 132.196 34.3027 127.596 36.1413 121.771 37.0265L 143.336 63.5324C 144.664 65.1667 145.993 66.3583 147.321 67.1074C 148.65 67.8564 150.353 68.3331 152.431 68.5374L 152.431 70.427L 135.568 70.427L 110.631 38.2522L 104.806 38.5076L 104.806 59.0892C 104.806 62.9706 105.385 65.4391 106.543 66.4945C 107.735 67.5159 110.307 68.1969 114.259 68.5374L 114.259 70.427L 85.1828 70.427L 85.1828 68.5374Z"/>
<path id="path2_fill" d="M 165.767 1.22571L 224.89 1.22571L 225.452 18.9984L 222.948 18.9984C 221.722 13.4147 220.155 9.78862 218.247 8.1203C 216.373 6.41793 212.405 5.56675 206.341 5.56675L 200.515 5.56675L 200.515 59.0892C 200.515 63.1409 201.145 65.6604 202.406 66.6477C 203.666 67.6011 206.426 68.2309 210.684 68.5374L 210.684 70.427L 180.177 70.427L 180.177 68.5374C 184.606 68.1969 187.365 67.4649 188.455 66.3413C 189.545 65.2177 190.091 62.3918 190.091 57.8635L 190.091 5.56675L 184.265 5.56675C 178.474 5.56675 174.522 6.40091 172.41 8.06923C 170.332 9.73755 168.765 13.3806 167.708 18.9984L 165.153 18.9984L 165.767 1.22571Z"/>
<path id="path3_fill" d="M 238.787 68.5374C 242.637 68.1288 245.124 67.4478 246.248 66.4945C 247.406 65.5071 247.986 63.0387 247.986 59.0892L 247.986 12.5635C 247.986 8.85232 247.423 6.43495 246.299 5.31139C 245.175 4.15378 242.671 3.43879 238.787 3.16641L 238.787 1.22571L 294.385 1.22571L 294.743 16.2406L 292.086 16.2406C 291.2 11.6102 289.871 8.61398 288.1 7.25209C 286.328 5.8902 282.376 5.20925 276.244 5.20925L 262.038 5.20925C 260.505 5.20925 259.551 5.4646 259.177 5.97531C 258.836 6.45198 258.666 7.37126 258.666 8.73315L 258.666 32.0726L 274.762 32.0726C 279.225 32.0726 282.07 31.4087 283.296 30.0809C 284.523 28.753 285.511 26.0633 286.26 22.0116L 288.713 22.0116L 288.713 46.2193L 286.26 46.2193C 285.476 42.1677 284.472 39.495 283.245 38.2012C 282.019 36.8733 279.191 36.2094 274.762 36.2094L 258.666 36.2094L 258.666 62.1024C 258.666 64.1793 259.313 65.405 260.607 65.7795C 261.936 66.154 265.871 66.3413 272.412 66.3413C 279.498 66.3413 284.727 65.5752 288.1 64.0431C 291.472 62.4769 294.504 58.7147 297.196 52.7564L 300.108 52.7564L 295.356 70.427L 238.787 70.427L 238.787 68.5374Z"/>
<path id="path4_fill" d="M 312.677 68.5374C 316.799 68.0947 319.354 67.3457 320.342 66.2902C 321.364 65.2007 321.875 62.3918 321.875 57.8635L 321.875 12.5635C 321.875 8.85232 321.313 6.43495 320.189 5.31139C 319.065 4.15378 316.561 3.43879 312.677 3.16641L 312.677 1.22571L 368.428 1.22571L 368.786 16.2406L 365.873 16.2406C 365.157 11.4399 363.812 8.4097 361.836 7.14995C 359.86 5.85615 355.959 5.20925 350.134 5.20925L 335.826 5.20925C 334.429 5.20925 333.526 5.44758 333.117 5.92424C 332.743 6.40091 332.555 7.33721 332.555 8.73315L 332.555 32.0726L 347.681 32.0726C 352.144 32.0726 354.988 31.4087 356.215 30.0809C 357.441 28.753 358.429 26.0633 359.179 22.0116L 361.632 22.0116L 361.632 46.2193L 359.179 46.2193C 358.395 42.1677 357.39 39.495 356.164 38.2012C 354.937 36.8733 352.11 36.2094 347.681 36.2094L 332.555 36.2094L 332.555 59.0892C 332.555 62.9366 333.134 65.405 334.293 66.4945C 335.485 67.55 338.057 68.2309 342.009 68.5374L 342.009 70.427L 312.677 70.427L 312.677 68.5374Z"/>
<path id="path5_fill" d="M 426.374 43.5636L 414.263 14.7595L 402.306 43.5636L 426.374 43.5636ZM 381.201 70.427L 381.201 68.5374C 383.892 68.2309 385.902 67.2095 387.231 65.4731C 388.594 63.7367 390.91 59.0211 394.181 51.3264L 416.001 0L 418.045 0L 444.106 59.2935C 445.843 63.243 447.223 65.6944 448.245 66.6477C 449.301 67.567 451.056 68.1969 453.509 68.5374L 453.509 70.427L 426.885 70.427L 426.885 68.5374C 429.951 68.265 431.927 67.9415 432.813 67.567C 433.699 67.1584 434.141 66.1881 434.141 64.656C 434.141 64.1453 433.971 63.243 433.63 61.9492C 433.29 60.6554 432.813 59.2935 432.2 57.8635L 427.856 47.8025L 400.466 47.8025C 397.741 54.646 396.105 58.8339 395.56 60.366C 395.049 61.8641 394.794 63.0557 394.794 63.941C 394.794 65.7114 395.509 66.9371 396.94 67.6181C 397.826 68.0267 399.495 68.3331 401.948 68.5374L 401.948 70.427L 381.201 70.427Z"/>
<path id="path6_fill" d="M 503.943 0C 507.724 0 511.608 0.561782 515.594 1.68534C 519.58 2.80891 521.811 3.37069 522.288 3.37069C 523.276 3.37069 524.213 3.09831 525.099 2.55355C 525.984 2.0088 526.598 1.15761 526.938 0L 529.136 0L 530.106 23.4927L 527.705 23.4927C 526.308 18.8282 524.485 15.066 522.237 12.206C 517.944 6.8265 512.17 4.13676 504.914 4.13676C 497.589 4.13676 491.593 7.03078 486.926 12.8188C 482.293 18.6069 479.977 26.574 479.977 36.7201C 479.977 46.0491 482.412 53.5054 487.284 59.0892C 492.19 64.6389 498.39 67.4138 505.885 67.4138C 511.301 67.4138 516.292 66.12 520.857 63.5324C 523.48 62.0684 526.359 59.8553 529.493 56.8932L 531.435 58.8339C 529.118 61.7619 526.24 64.3325 522.799 66.5456C 516.939 70.2908 510.586 72.1634 503.738 72.1634C 492.496 72.1634 483.571 68.5714 476.962 61.3874C 470.864 54.7482 467.815 46.4576 467.815 36.5158C 467.815 26.3356 471.034 17.7898 477.473 10.8781C 484.252 3.62605 493.075 0 503.943 0Z"/>
<path id="path7_fill" d="M 546.967 1.22571L 606.091 1.22571L 606.653 18.9984L 604.149 18.9984C 602.923 13.4147 601.356 9.78862 599.448 8.1203C 597.574 6.41793 593.605 5.56675 587.542 5.56675L 581.716 5.56675L 581.716 59.0892C 581.716 63.1409 582.346 65.6604 583.607 66.6477C 584.867 67.6011 587.627 68.2309 591.885 68.5374L 591.885 70.427L 561.378 70.427L 561.378 68.5374C 565.807 68.1969 568.566 67.4649 569.656 66.3413C 570.746 65.2177 571.291 62.3918 571.291 57.8635L 571.291 5.56675L 565.466 5.56675C 559.675 5.56675 555.723 6.40091 553.611 8.06923C 551.532 9.73755 549.965 13.3806 548.909 18.9984L 546.354 18.9984L 546.967 1.22571Z"/>
</defs>
</svg>
