<svg width="118" height="189" viewBox="0 0 118 189" version="1.1" xmlns="http://www.w3.org/2000/svg" xmlns:xlink="http://www.w3.org/1999/xlink">
<title>logo</title>
<desc>Created using Figma</desc>
<g id="Canvas" transform="translate(-7048 -4119)">
<g id="logo">
<g id="WebPrototype">
<g id="logo">
<g id="Rectangle-16">
<use xlink:href="#path0_fill" transform="translate(7048 4126.74)"/>
</g>
<g id="Rectangle-17">
<use xlink:href="#path1_fill" transform="translate(7094.92 4121.62)"/>
</g>
<g id="Rectangle-17">
<use xlink:href="#path2_fill" transform="translate(7090.57 4150.39)"/>
</g>
<g id="Rectangle-17">
<use xlink:href="#path3_fill" transform="translate(7102.81 4173.99)"/>
</g>
<g id="Rectangle-17">
<use xlink:href="#path4_fill" transform="translate(7137.31 4119)"/>
</g>
<g id="Rectangle-17">
<use xlink:href="#path5_fill" transform="translate(7120.52 4141)"/>
</g>
<g id="Rectangle-17">
<use xlink:href="#path6_fill" transform="translate(7130.24 4198.64)"/>
</g>
<g id="Rectangle-17">
<use xlink:href="#path7_fill" transform="translate(7150.94 4221.87)"/>
</g>
</g>
</g>
</g>
</g>
<defs>
<path id="path0_fill" fill-rule="evenodd" d="M 12.5238 1.13321C 12.5238 1.13321 28.4685 -9.72015e-09 40.8891 -9.72015e-09C 37.8791 13.4138 44.5563 20.522 44.5563 20.522C 44.5563 20.522 28.0935 26.5704 48.3469 42.8561C 45.6951 52.2686 48.3469 67.2574 48.3469 67.2574C 48.3469 67.2574 34.8618 88.2985 37.9911 86.3429C 40.2336 84.9415 50.6369 78.7577 53.9192 75.4321C 62.4593 75.4321 75.058 80.4445 75.058 80.4445C 75.058 80.4445 75.058 97.6769 73.2883 101.176C 62.2472 112.303 53.7525 115.454 51.3221 115.454C 51.3221 115.454 61.3853 116.67 67.996 114.279L 81.2277 105.28L 92.1002 115.454C 92.1002 115.454 89.3871 126.926 92.1002 124.508C 94.8134 122.09 100.145 118.682 100.145 118.682C 100.145 118.682 106.295 120.123 115.1 124.508C 115.1 151.465 88.1017 181.259 88.1017 181.259L 28.0997 181.259C 28.0997 181.259 -1.68617e-09 150.706 -1.68617e-09 124.508C -1.68617e-09 98.3102 18.8028 78.6552 21.8765 56.7695C 26.4301 24.3471 12.5238 1.13321 12.5238 1.13321Z"/>
<path id="path1_fill" fill-rule="evenodd" d="M 0.0878703 4.07668C 0.0878703 4.07668 9.36818 3.0348 21.1002 1.4795C 32.8321 -0.0758078 39.3565 0.000611741 39.3565 0.000611741C 39.3565 0.000611741 38.712 11.82 36.3822 15.5491C 30.8735 20.9708 24.2261 26.9828 24.2261 26.9828C 24.2261 26.9828 13.9754 26.4917 2.92918 22.7315C -0.77843 19.8945 0.0878703 4.07668 0.0878703 4.07668Z"/>
<path id="path2_fill" fill-rule="evenodd" d="M 1.23165e-06 4.68481C 1.23165e-06 4.68481 5.5172 0.375634 9.39006 0.0347373C 13.829 -0.35599 24.2299 2.67836 24.2299 2.67836L 28.2711 16.3156L 10.4564 16.3156L 1.23165e-06 4.68481Z"/>
<path id="path3_fill" fill-rule="evenodd" d="M 0.00234909 -2.60824e-06L 16.5239 -2.60824e-06L 33.0478 8.83006L 33.0478 18.7884L 24.012 28.184C 24.012 28.184 16.6735 22.4553 2.43056 21.1906C -0.169714 13.0192 0.00234909 -2.60824e-06 0.00234909 -2.60824e-06Z"/>
<path id="path4_fill" fill-rule="evenodd" d="M 0.902477 1.9527L 11.1912 -2.42802e-09L 9.67509 9.96348L 7.59782 19.927C 7.59782 19.927 2.16153 18.538 -4.86927e-06 15.4589L 0.902477 1.9527Z"/>
<path id="path5_fill" fill-rule="evenodd" d="M 15.6434 0C 15.6434 0 19.9579 2.1693 22.5297 4.24815C 15.6433 25.1332 16.9777 35.1325 16.9777 35.1325C 16.9777 35.1325 6.83357 31.4716 4.66142 28.2934C 1.9315 24.299 0 14.0308 0 14.0308L 15.6434 0Z"/>
<path id="path6_fill" fill-rule="evenodd" d="M 9.3995 2.61364e-06L 23.068 16.741L 13.8071 33.482L 0.0927966 24.109C 0.0927966 24.109 -0.552767 15.553 1.56155 9.37154C 2.9263 5.38153 9.3995 2.61364e-06 9.3995 2.61364e-06Z"/>
<path id="path7_fill" fill-rule="evenodd" d="M 7.12891 0L 14.2578 22.1394L 0 11.5476L 7.12891 0Z"/>
</defs>
</svg>
